<svg xmlns="http://www.w3.org/2000/svg" viewBox="0 0 150.81 76.05"><defs><style>.cls-1{fill:#8ec741;}.cls-2{fill:#27aa27;}.cls-3{fill:#33c2af;}.cls-4{fill:#3b3b3d;}</style></defs><title>logo</title><g id="Layer_2" data-name="Layer 2"><g id="Layer_1-2" data-name="Layer 1"><path class="cls-1" d="M25.05,76.05a3.67,3.67,0,0,1-1.84-6.84L42.75,57.92V35.36a3.67,3.67,0,0,1,7.33,0V60a3.24,3.24,0,0,1,0,.44A3.7,3.7,0,0,1,48.56,63l-.37.23L26.88,75.55A3.61,3.61,0,0,1,25.05,76.05Z"/><path class="cls-2" d="M25,76.05a3.61,3.61,0,0,1-1.83-.5L1.83,63.21A3.66,3.66,0,0,1,0,60V35.36a3.66,3.66,0,0,1,1.83-3.17L23.21,19.85a3.65,3.65,0,0,1,3.67,0L48.25,32.19a3.66,3.66,0,1,1-3.67,6.34L25,27.25,7.33,37.48V57.92L26.88,69.21A3.67,3.67,0,0,1,25,76.05Z"/><path class="cls-3" d="M37.63,54.07a.24.24,0,0,0,0-.12.06.06,0,0,0,0-.06.54.54,0,0,0-.05-.11l-.06-.09-.07-.08-.09-.08-3.76-2.2-4.53-2.61c-2-1.17-3.79-2.16-3.93-2.19A36.38,36.38,0,0,0,21,48.72l-4.53,2.61c-2,1.18-3.7,2.14-3.71,2.16l-.09.07-.08.09-.05.09v.58l.05.09.08.08.09.07,3.71,2.15L21,59.41c2,1.18,3.79,2.18,3.92,2.23h.24c.12,0,1.89-1,3.91-2.23L33.6,56.8l3.71-2.15.09-.07.07-.08.06-.1a.47.47,0,0,0,0-.1.09.09,0,0,0,0-.07A.3.3,0,0,0,37.63,54.07Z"/><path class="cls-3" d="M25.17,62.44h-.39l-.14,0c-.26-.1-2.42-1.33-4-2.29l-4.53-2.7-4.13-2.53a2,2,0,0,1-.14-.25l-.05-.22a1.31,1.31,0,0,1,0-.28V53.9a1.31,1.31,0,0,1,0-.28l.05-.17a1.17,1.17,0,0,1,.15-.27l.33-.32h0c.14-.1.4-.25.9-.54.69-.39,1.74-1,2.89-1.68L20.61,48a35.19,35.19,0,0,1,4.21-2.23l.24-.11.25.06c.38.08,3,1.62,4.17,2.28l8.77,5.31.13.26.08.3,0,.1a.86.86,0,0,1,0,.16,2.21,2.21,0,0,1,0,.25l-.06.21a1.74,1.74,0,0,1-.1.19l-.5.53L29.47,60.1C25.64,62.44,25.35,62.44,25.17,62.44ZM13.43,54l3.45,2,4.53,2.7c1.66,1,3.13,1.81,3.65,2.09.46-.23,1.78-1,3.6-2.08l8.05-4.65-8-4.67c-1.61-.94-3-1.7-3.54-2a35.64,35.64,0,0,0-3.71,2L16.87,52c-1.14.68-2.2,1.29-2.89,1.69Z"/><path class="cls-2" d="M109.81,25V75H103V35.35L89.74,59a1.47,1.47,0,0,1-1.29.77H87.24A1.47,1.47,0,0,1,86,59L72.68,35.35V75h-6.8V25a1.56,1.56,0,0,1,1.5-1.59h5a1.47,1.47,0,0,1,1.29.79L87.85,49.81,102,24.15a1.5,1.5,0,0,1,1.29-.79h5a1.54,1.54,0,0,1,1.11.5A1.51,1.51,0,0,1,109.81,25Zm41,5V23.36H119a1.53,1.53,0,0,0-1.1.5,1.56,1.56,0,0,0-.42,1.14V75h6.76V52.37h19.35V45.8H124.24V29.94l26.57.06Z"/><path class="cls-4" d="M139.27,5.91V4.26h.65a2.53,2.53,0,0,1,1.43.37A1.44,1.44,0,0,1,141.92,6v9H140c-.31,0-.5-.08-.58-.25a1.81,1.81,0,0,1-.12-.73v-.21a3.71,3.71,0,0,1-.5.47,3.46,3.46,0,0,1-.67.46,3.68,3.68,0,0,1-.87.35,4.19,4.19,0,0,1-1.12.13,3.81,3.81,0,0,1-3-1.17,4.68,4.68,0,0,1-1-3.18V4.26h.65a2.53,2.53,0,0,1,1.43.37A1.42,1.42,0,0,1,134.79,6v4.81a2.17,2.17,0,0,0,.55,1.56,1.94,1.94,0,0,0,1.42.55,2.42,2.42,0,0,0,1-.21,2.25,2.25,0,0,0,.8-.6,2.83,2.83,0,0,0,.53-.88,2.73,2.73,0,0,0,.19-1.09V5.91Zm-10,8.3a7.48,7.48,0,0,1-1.72.73,6.41,6.41,0,0,1-2,.29,7.77,7.77,0,0,1-3-.57,7.08,7.08,0,0,1-2.33-1.58,7.33,7.33,0,0,1-1.52-2.38,8.52,8.52,0,0,1-.55-3,8.31,8.31,0,0,1,.55-3,7.46,7.46,0,0,1,1.53-2.44A7.47,7.47,0,0,1,122.67.61a7.39,7.39,0,0,1,3-.61,7.87,7.87,0,0,1,2,.23,7,7,0,0,1,1.62.62,5.23,5.23,0,0,1,1.3.93c.15.15.36.37.43.46a1.11,1.11,0,0,1,.2.37.79.79,0,0,1,0,.43,1.09,1.09,0,0,1-.39.62,8.77,8.77,0,0,1-1.32.94A5.74,5.74,0,0,0,128,3.08a4.6,4.6,0,0,0-4.19-.18A4.43,4.43,0,0,0,122.37,4a5,5,0,0,0-.91,1.63,6.48,6.48,0,0,0-.31,2,6.06,6.06,0,0,0,.31,1.94,4.88,4.88,0,0,0,.89,1.57,4.51,4.51,0,0,0,1.39,1.06,4.12,4.12,0,0,0,1.82.39,5,5,0,0,0,1.59-.22,3.87,3.87,0,0,0,1.12-.54,3.58,3.58,0,0,0,.77-.68c.21-.23.4-.44.57-.61a11.94,11.94,0,0,1,1.17.93,1.85,1.85,0,0,1,.28.28.57.57,0,0,1,.16.28.69.69,0,0,1,0,.35,1.34,1.34,0,0,1-.16.37,1.39,1.39,0,0,1-.23.31,6.54,6.54,0,0,1-1.55,1.16m-12.51-10h-.57a4.14,4.14,0,0,0-1.15.16,4.34,4.34,0,0,0-.89.38,4.41,4.41,0,0,0-.66.5,4.29,4.29,0,0,0-.46.49,1.09,1.09,0,0,0,0-.36,1.12,1.12,0,0,0-.59-.75,2.27,2.27,0,0,0-1.09-.25h-.87V14.87h2.65V9.2a2.78,2.78,0,0,1,.21-1.06,2.66,2.66,0,0,1,.57-.8,2.5,2.5,0,0,1,.85-.52,2.89,2.89,0,0,1,1-.18,4.65,4.65,0,0,1,.66.05,2.48,2.48,0,0,1,.55.15c.09-.19.39-1,.48-1.32a1.91,1.91,0,0,0,.09-.75.47.47,0,0,0-.12-.32.92.92,0,0,0-.28-.19,1.9,1.9,0,0,0-.36-.08M89.76,12a3.43,3.43,0,0,0,2.38.94,2.79,2.79,0,0,0,1.28-.28,2.84,2.84,0,0,0,1-.74,3,3,0,0,0,.59-1,3.34,3.34,0,0,0,.2-1.21A4.77,4.77,0,0,0,95,8.41a2.87,2.87,0,0,0-.47-1,2.35,2.35,0,0,0-.84-.69,2.94,2.94,0,0,0-1.28-.26,2.5,2.5,0,0,0-1.1.26,2.82,2.82,0,0,0-.84.66,3.36,3.36,0,0,0-.54.89,3,3,0,0,0-.19.93ZM87.14,4.4H88a2.27,2.27,0,0,1,1.09.25,1.12,1.12,0,0,1,.59.75,1,1,0,0,1,0,.24,6.28,6.28,0,0,1,.54-.49A4.08,4.08,0,0,1,91,4.63a5.13,5.13,0,0,1,1-.34,4.68,4.68,0,0,1,1.17-.14,4.31,4.31,0,0,1,3.57,1.72,5.36,5.36,0,0,1,.87,1.76,7.11,7.11,0,0,1,.29,2,5.42,5.42,0,0,1-.36,2.11,6,6,0,0,1-.89,1.52,4.88,4.88,0,0,1-2,1.5,5.61,5.61,0,0,1-2.18.43,4.92,4.92,0,0,1-2.67-.86V18a1,1,0,0,1-.36.06h-.6a2.7,2.7,0,0,1-.63-.07,1.23,1.23,0,0,1-.53-.25,1.38,1.38,0,0,1-.37-.49,2.12,2.12,0,0,1-.13-.79Zm57.42,0V2.23a1.44,1.44,0,0,1,.15-.68,1.49,1.49,0,0,1,.41-.42,2,2,0,0,1,.56-.2,4.46,4.46,0,0,1,.63-.05h.89V4.36h3l-1.53,2.15H147.2V11.1a2.73,2.73,0,0,0,.3,1.38,1.21,1.21,0,0,0,1.11.48,1.61,1.61,0,0,0,.54-.09c.17-.07.33-.14.46-.21a1.78,1.78,0,0,0,.36-.25,1.29,1.29,0,0,0,.21-.19,5.5,5.5,0,0,1,.47.81,1.32,1.32,0,0,1,.16.64.83.83,0,0,1-.21.54,1.9,1.9,0,0,1-.6.49,3.45,3.45,0,0,1-.94.36,4,4,0,0,1-1.2.14,4,4,0,0,1-1.44-.27,2.86,2.86,0,0,1-1.09-.8,3.31,3.31,0,0,1-.59-1.24,7.29,7.29,0,0,1-.18-1.61V6.51h-1.8V4.36ZM83.11,11.15a1.45,1.45,0,0,1-.21.76,2.07,2.07,0,0,1-.55.63,2.22,2.22,0,0,1-.77.42,2.53,2.53,0,0,1-.91.16,2.31,2.31,0,0,1-1.42-.38,1.31,1.31,0,0,1-.48-1.05,1.64,1.64,0,0,1,.51-1.16,2.57,2.57,0,0,1,1.79-.5h2ZM77.9,4.62a3.34,3.34,0,0,0-.75.49.7.7,0,0,0-.25.51,2.06,2.06,0,0,0,.2.54,4.44,4.44,0,0,0,.77,1,7.92,7.92,0,0,1,1.19-.62,4.56,4.56,0,0,1,1.79-.3,2.7,2.7,0,0,1,1.64.45,1.43,1.43,0,0,1,.62,1.24v.24H80.85A6.78,6.78,0,0,0,79,8.28,4.2,4.2,0,0,0,77.51,9a3.32,3.32,0,0,0-.94,1.19,3.68,3.68,0,0,0-.34,1.6,3.44,3.44,0,0,0,.33,1.52,3.06,3.06,0,0,0,.85,1.07,3.74,3.74,0,0,0,1.17.61,4,4,0,0,0,1.28.21,4.43,4.43,0,0,0,2-.41,3.43,3.43,0,0,0,1.3-.92,1.86,1.86,0,0,0,.12.74c.08.17.28.25.58.25H85.7v-7a3.58,3.58,0,0,0-.32-1.54,3.31,3.31,0,0,0-.89-1.21A4.09,4.09,0,0,0,83,4.28,5.68,5.68,0,0,0,81.21,4a10.18,10.18,0,0,0-1.65.12L79,4.23a7.31,7.31,0,0,0-1.11.39m-2-.71A4.33,4.33,0,0,0,75,2.23,5,5,0,0,0,73.2.9,6.51,6.51,0,0,0,70.34.36H67.63A3.36,3.36,0,0,0,67,.42a1.71,1.71,0,0,0-.56.2A1.33,1.33,0,0,0,66,1a1.45,1.45,0,0,0-.16.68V14.87H68.6v-4h1.94a6.73,6.73,0,0,0,2-.3,5.09,5.09,0,0,0,1.8-.94A4.71,4.71,0,0,0,75.61,8a5.11,5.11,0,0,0,.5-2.4A5.79,5.79,0,0,0,75.86,4M72.4,7.68a2.82,2.82,0,0,1-2.11.78H68.6V2.73h1.69a2.81,2.81,0,0,1,2.09.84,2.76,2.76,0,0,1,.81,2.09,2.64,2.64,0,0,1-.79,2m35.16,4.05a10.65,10.65,0,0,1,.87.91,1.57,1.57,0,0,1,.19.26.47.47,0,0,1,.11.25.51.51,0,0,1,0,.3,1.22,1.22,0,0,1-.17.29,1,1,0,0,1-.23.23,5.38,5.38,0,0,1-2,1,7.45,7.45,0,0,1-2.11.27,5.82,5.82,0,0,1-2.29-.43,5,5,0,0,1-2.88-3,6.87,6.87,0,0,1-.39-2.33A5.94,5.94,0,0,1,99,7.33a5.36,5.36,0,0,1,1.1-1.74,5.3,5.3,0,0,1,1.68-1.17A5.48,5.48,0,0,1,104,4a5.07,5.07,0,0,1,2.43.52A4.54,4.54,0,0,1,108,5.9a5.52,5.52,0,0,1,.87,1.93,8.19,8.19,0,0,1,.27,2.2v.38h-7.85a2.24,2.24,0,0,0,.26,1.05,2.77,2.77,0,0,0,.67.81,3,3,0,0,0,1,.51,3.45,3.45,0,0,0,1,.18,5.37,5.37,0,0,0,1.33-.14,4.91,4.91,0,0,0,1-.34,2.77,2.77,0,0,0,.66-.4c.17-.14.3-.26.39-.35M106.42,8.5A2.17,2.17,0,0,0,105.8,7a2.23,2.23,0,0,0-.77-.54,2.59,2.59,0,0,0-1-.24,3,3,0,0,0-1.15.21A2.65,2.65,0,0,0,102,7a2.37,2.37,0,0,0-.52.73,2.17,2.17,0,0,0-.18.8Z"/></g></g></svg>